<svg xmlns="http://www.w3.org/2000/svg" xmlns:xlink="http://www.w3.org/1999/xlink" width="680" height="680" viewBox="0 0 680 680" fill="none"><defs><rect id="path_0" x="0" y="0" width="680" height="680" /></defs><g opacity="1" transform="translate(0 0)  rotate(0 340 340)"><mask id="bg-mask-0" fill="white"><use xlink:href="#path_0"></use></mask><g mask="url(#bg-mask-0)" ><g opacity="1" transform="translate(13 12)  rotate(0 327.4 327.87034370225496)"><path id="路径 1" fill-rule="evenodd" style="fill:#000000" transform="translate(329.93430926309566 0)  rotate(0 162.43284536845218 327.87034370225496)" opacity="1" d="M169.97,175.92C170.97,177.22 175.17,182.62 179.17,187.82C183.27,193.02 186.87,197.82 187.37,198.42C187.77,198.92 188.77,200.52 189.47,201.92C190.17,203.22 191.07,204.52 191.47,204.82C191.77,205.12 193.17,207.32 194.57,209.82C195.87,212.32 197.17,214.52 197.47,214.82C197.77,215.12 199.07,217.62 200.47,220.32C201.87,223.12 203.27,225.52 203.77,225.62C204.17,225.82 204.47,226.82 204.47,227.92C204.47,228.92 204.97,229.82 205.47,229.82C206.07,229.82 206.47,230.52 206.47,231.32C206.47,232.12 206.97,233.72 207.47,234.82C208.07,235.92 208.97,237.72 209.47,238.82C210.07,239.92 210.47,241.52 210.47,242.32C210.47,243.12 210.97,243.82 211.47,243.82C212.07,243.82 212.47,244.72 212.47,245.82C212.47,246.92 212.87,248.62 213.47,249.62C216.07,254.32 220.77,272.12 223.87,288.42C229.57,319.02 227.77,357.72 219.27,388.32C216.77,397.32 211.97,411.32 211.27,411.62C210.77,411.82 210.47,412.82 210.47,413.82C210.47,414.82 210.07,416.02 209.47,416.32C208.97,416.62 208.47,418.02 208.47,419.42C208.47,420.72 208.07,421.82 207.47,421.82C206.97,421.82 206.47,422.72 206.47,423.82C206.47,424.92 206.07,425.82 205.47,425.82C204.97,425.82 204.47,426.72 204.47,427.82C204.47,428.92 204.07,429.82 203.47,429.82C202.97,429.82 202.47,430.72 202.47,431.82C202.47,432.92 202.07,433.82 201.67,433.82C201.17,433.82 200.27,435.42 199.47,437.32C198.67,439.22 197.77,440.82 197.27,440.82C196.87,440.82 196.47,441.72 196.47,442.82C196.47,443.92 196.07,444.82 195.67,444.82C195.17,444.82 194.27,445.92 193.67,447.32C192.97,448.72 192.07,450.42 191.47,451.12C190.87,451.82 188.37,455.52 185.87,459.32C183.37,463.22 180.97,466.52 180.57,466.82C180.27,467.12 178.37,469.32 176.47,471.82C170.67,479.32 170.27,479.82 161.47,488.72C156.77,493.42 150.47,499.32 147.47,501.82C144.47,504.32 141.77,506.52 141.47,506.82C141.17,507.12 138.07,509.52 134.47,512.02C130.87,514.62 127.47,517.12 126.87,517.62C126.37,518.12 124.77,519.12 123.37,519.82C122.07,520.52 120.77,521.42 120.47,521.82C120.17,522.12 117.97,523.52 115.47,524.92C112.97,526.22 110.77,527.52 110.47,527.82C110.17,528.12 107.77,529.42 104.97,530.82C102.27,532.22 99.87,533.62 99.67,534.12C99.47,534.52 98.67,534.82 97.87,534.82C97.17,534.82 94.97,535.72 92.97,536.82C90.97,537.92 88.57,538.82 87.47,538.82C86.37,538.82 85.47,539.32 85.47,539.82C85.47,540.42 84.57,540.82 83.57,540.82C82.47,540.82 81.27,541.32 80.97,541.82C80.67,542.42 79.27,542.82 77.87,542.82C76.57,542.82 75.47,543.32 75.47,543.82C75.47,544.42 74.37,544.82 73.07,544.82C71.67,544.82 70.37,545.22 70.07,545.72C69.77,546.22 68.27,546.82 66.77,547.12C65.17,547.32 59.67,548.72 54.47,550.12C49.27,551.52 41.47,553.22 37.17,553.92C32.77,554.52 29.07,555.62 28.87,556.22C28.67,556.82 27.77,564.32 26.97,572.82C24.87,594.42 23.37,602.32 18.37,616.92C15.17,626.62 5.67,647.02 4.27,647.62C3.87,647.82 3.47,648.82 3.47,649.92C3.47,650.92 3.07,651.82 2.47,651.82C1.97,651.82 1.47,652.42 1.47,653.22C1.47,654.02 0.87,654.92 0.27,655.22C-3.43,656.82 32.47,654.42 48.47,651.92C62.87,649.72 72.67,647.52 88.97,643.02C98.17,640.52 115.87,634.52 116.47,633.72C116.77,633.42 119.07,632.52 121.77,631.72C124.37,631.02 126.47,630.02 126.47,629.62C126.47,629.22 127.37,628.82 128.47,628.82C129.57,628.82 130.47,628.42 130.47,627.82C130.47,627.32 131.37,626.82 132.37,626.82C133.47,626.82 134.67,626.42 134.97,625.82C135.27,625.32 136.47,624.82 137.57,624.82C138.57,624.82 139.47,624.42 139.47,623.82C139.47,623.32 140.37,622.82 141.47,622.82C142.57,622.82 143.47,622.42 143.47,621.82C143.47,621.32 144.37,620.82 145.47,620.82C146.57,620.82 147.47,620.42 147.47,619.82C147.47,619.32 148.37,618.82 149.47,618.82C150.57,618.82 151.47,618.42 151.47,617.82C151.47,617.32 152.37,616.82 153.47,616.82C154.57,616.82 155.47,616.42 155.47,615.92C155.47,615.42 156.87,614.52 158.47,613.82C160.17,613.12 161.47,612.22 161.47,611.72C161.47,611.22 162.37,610.82 163.47,610.82C164.57,610.82 165.47,610.42 165.47,609.82C165.47,609.32 165.87,608.82 166.47,608.82C167.47,608.82 187.57,596.12 188.47,594.92C188.77,594.52 190.57,593.12 192.47,591.82C194.37,590.52 196.17,589.12 196.47,588.82C196.77,588.52 198.57,587.12 200.47,585.82C202.37,584.52 205.07,582.22 206.47,580.82C207.87,579.42 210.57,577.12 212.47,575.82C216.97,572.62 242.27,547.32 245.47,542.82C246.77,540.92 249.07,538.22 250.47,536.82C251.87,535.42 254.17,532.72 255.47,530.82C256.77,528.92 258.17,527.12 258.47,526.82C258.77,526.52 260.17,524.72 261.47,522.82C262.77,520.92 264.17,519.12 264.57,518.82C265.77,517.92 278.47,497.82 278.47,496.82C278.47,496.22 278.77,495.82 279.27,495.82C279.67,495.82 281.07,493.52 282.37,490.82C283.77,488.02 285.27,485.82 285.67,485.82C286.07,485.82 286.47,484.92 286.47,483.82C286.47,482.72 286.97,481.82 287.47,481.82C288.07,481.82 288.47,480.92 288.47,479.82C288.47,478.72 288.97,477.82 289.47,477.82C290.07,477.82 290.47,476.92 290.47,475.82C290.47,474.72 290.97,473.82 291.47,473.82C292.07,473.82 292.47,472.92 292.47,471.82C292.47,470.72 292.97,469.82 293.47,469.82C294.07,469.82 294.47,469.12 294.47,468.32C294.47,467.52 295.37,465.32 296.47,463.32C297.57,461.32 298.47,459.12 298.47,458.32C298.47,457.52 298.87,456.82 299.27,456.82C299.67,456.82 300.67,454.72 301.37,452.12C302.17,449.42 303.07,447.12 303.47,446.82C304.17,446.32 313.67,417.22 315.47,410.22C322.37,382.52 324.87,361.02 324.87,327.82C324.87,293.72 322.47,273.02 314.97,243.62C312.87,235.52 304.27,209.52 303.47,208.82C303.07,208.52 302.17,206.22 301.37,203.62C300.67,200.92 299.67,198.82 299.27,198.82C298.87,198.82 298.47,198.22 298.47,197.42C298.47,196.62 297.57,194.32 296.57,192.12C295.47,190.02 294.07,186.82 293.27,185.12C292.57,183.32 291.67,181.82 291.27,181.82C290.77,181.82 290.47,180.92 290.47,179.82C290.47,178.72 290.07,177.82 289.47,177.82C288.97,177.82 288.47,176.92 288.47,175.82C288.47,174.72 288.07,173.82 287.47,173.82C286.97,173.82 286.47,172.92 286.47,171.82C286.47,170.72 286.07,169.82 285.57,169.82C285.07,169.82 284.17,168.42 283.47,166.82C282.77,165.12 281.87,163.82 281.37,163.82C280.87,163.82 280.47,162.92 280.47,161.82C280.47,160.72 280.07,159.82 279.47,159.82C278.97,159.82 278.47,159.42 278.47,158.82C278.47,157.62 266.07,138.32 263.47,135.52C262.37,134.42 261.47,133.02 261.47,132.52C261.47,132.02 260.67,130.82 259.67,129.92C258.67,129.02 256.77,126.72 255.47,124.82C254.17,122.92 251.87,120.22 250.47,118.82C249.07,117.42 246.77,114.72 245.47,112.82C242.27,108.32 216.97,83.02 212.47,79.82C210.57,78.52 207.87,76.22 206.47,74.82C205.07,73.42 202.37,71.12 200.47,69.82C198.57,68.52 196.27,66.62 195.37,65.62C194.47,64.62 193.27,63.82 192.77,63.82C192.27,63.82 190.87,62.92 189.77,61.82C186.97,59.22 167.67,46.82 166.47,46.82C165.87,46.82 165.47,46.42 165.47,45.82C165.47,45.32 164.57,44.82 163.47,44.82C162.37,44.82 161.47,44.52 161.47,44.12C161.47,43.62 160.47,42.82 159.17,42.22C153.17,39.22 147.97,36.22 147.67,35.62C147.47,35.12 146.67,34.82 145.87,34.82C145.17,34.82 142.97,33.92 140.97,32.82C138.97,31.72 136.77,30.82 135.97,30.82C135.17,30.82 134.47,30.42 134.47,29.82C134.47,29.32 133.57,28.82 132.47,28.82C131.37,28.82 130.47,28.42 130.47,27.82C130.47,27.32 129.57,26.82 128.47,26.82C127.37,26.82 126.47,26.42 126.47,26.02C126.47,25.62 124.37,24.62 121.77,23.92C119.07,23.12 116.27,22.12 115.47,21.72C105.77,17.12 75.47,8.52 59.47,5.72C33.37,1.32 -2.23,-1.58 0.27,0.92C0.87,1.62 1.47,3.02 1.47,4.02C1.47,5.02 1.97,5.82 2.47,5.82C3.07,5.82 3.47,6.52 3.47,7.32C3.47,8.12 3.87,9.62 4.37,10.62C5.17,12.22 6.77,15.92 8.57,20.32C15.17,36.82 18.57,55.72 19.37,80.32L19.97,99.32L25.47,100.12C33.37,101.22 52.57,104.82 55.47,105.82C56.87,106.22 59.97,107.12 62.47,107.82C64.97,108.42 67.77,109.42 68.67,109.92C69.67,110.42 71.37,110.82 72.37,110.82C73.47,110.82 74.57,111.22 74.87,111.62C75.17,112.02 77.67,113.02 80.37,113.82C83.17,114.52 85.47,115.52 85.47,116.02C85.47,116.42 86.37,116.82 87.37,116.82C88.47,116.82 89.67,117.32 89.97,117.82C90.27,118.42 91.47,118.82 92.57,118.82C93.57,118.82 94.47,119.32 94.47,119.82C94.47,120.42 95.37,120.82 96.47,120.82C97.57,120.82 98.47,121.32 98.47,121.82C98.47,122.42 99.37,122.82 100.47,122.82C101.57,122.82 102.47,123.32 102.47,123.82C102.47,124.42 103.37,124.82 104.47,124.82C105.57,124.82 106.47,125.12 106.47,125.62C106.47,126.02 107.47,126.82 108.77,127.32C112.37,129.02 119.97,133.32 120.47,133.92C120.77,134.22 122.07,135.12 123.37,135.82C124.77,136.52 126.37,137.52 126.87,137.92C127.47,138.42 131.37,141.42 135.47,144.52C139.57,147.62 143.47,150.62 144.07,151.22C144.67,151.82 146.67,153.42 148.47,154.82C151.97,157.42 166.47,171.62 169.97,175.92Z " /><path id="路径 2" fill-rule="evenodd" style="fill:#000000" transform="translate(0 2.128728992819697)  rotate(0 158.04620178525 325.29988206254905)" opacity="1" d="M37.4,171.7C36.9,171.7 36.4,172.6 36.4,173.7C36.4,174.8 36,175.7 35.4,175.7C34.9,175.7 34.4,176.6 34.4,177.7C34.4,178.8 34,179.7 33.4,179.7C32.9,179.7 32.4,180.6 32.4,181.7C32.4,182.8 32,183.7 31.4,183.7C30.9,183.7 30.4,184.6 30.4,185.6C30.4,186.7 30,187.9 29.4,188.2C28.9,188.5 28.4,189.7 28.4,190.8C28.4,191.8 28,192.7 27.4,192.7C26.9,192.7 26.4,193.6 26.4,194.7C26.4,195.8 26,196.7 25.6,196.7C25.2,196.7 24.2,198.8 23.5,201.5C22.7,204.1 21.8,206.7 21.4,207.2C20.4,208.5 14,227.5 11.9,235.2C2.8,268.5 0,290.4 0,326.2C0,353 1,364.3 5.3,388.2C8.3,404.9 18.4,440.2 21.4,444.2C21.8,444.8 22.7,447.3 23.5,450C24.2,452.6 25.2,454.7 25.6,454.7C26,454.7 26.4,455.6 26.4,456.7C26.4,457.8 26.9,458.7 27.4,458.7C28,458.7 28.4,459.6 28.4,460.6C28.4,461.7 28.8,462.9 29.4,463.2C30,463.5 30.4,464.7 30.4,465.8C30.4,466.8 30.9,467.7 31.4,467.7C32,467.7 32.4,468.6 32.4,469.7C32.4,470.8 32.9,471.7 33.4,471.7C34,471.7 34.4,472.6 34.4,473.7C34.4,474.8 34.9,475.7 35.4,475.7C36,475.7 36.4,476.6 36.4,477.7C36.4,478.8 36.8,479.7 37.3,479.7C37.8,479.7 38.4,480.5 38.7,481.5C39.5,483.8 42.7,489.1 43.7,489.5C44.1,489.7 44.4,490.5 44.4,491.3C44.4,492.1 44.8,493.3 45.4,494C45.9,494.7 50.6,501.6 55.9,509.5C61.1,517.4 66.5,524.9 67.9,526.3C69.3,527.7 70.4,529.2 70.4,529.7C70.4,530.2 72.4,532.7 74.9,535.1C77.4,537.6 79.4,539.9 79.4,540.2C79.4,542.1 111,573.7 112.9,573.7C113.2,573.7 115.5,575.7 118,578.2C120.4,580.7 122.9,582.7 123.4,582.7C123.9,582.7 125.4,583.8 126.8,585.2C128.2,586.6 135.7,592 143.6,597.2C151.5,602.5 158.4,607.2 159.1,607.7C159.8,608.3 161,608.7 161.9,608.7C162.7,608.7 163.4,609.1 163.4,609.6C163.4,610.1 164.2,610.7 165.2,611C167.5,611.8 172.8,615 173.2,616C173.4,616.4 174.4,616.7 175.5,616.7C176.5,616.7 177.4,617.2 177.4,617.7C177.4,618.3 178.3,618.7 179.4,618.7C180.5,618.7 181.4,619.2 181.4,619.7C181.4,620.3 182.3,620.7 183.4,620.7C184.5,620.7 185.4,621.2 185.4,621.7C185.4,622.3 186.3,622.7 187.3,622.7C188.4,622.7 189.6,623.2 189.9,623.7C190.2,624.3 191.4,624.7 192.5,624.7C193.5,624.7 194.4,625.2 194.4,625.7C194.4,626.3 195.3,626.7 196.4,626.7C197.5,626.7 198.4,627.1 198.4,627.5C198.4,627.9 200.5,628.9 203.2,629.6C205.8,630.4 208.4,631.3 208.9,631.7C210.2,632.7 229.2,639.1 236.9,641.2C252.6,645.5 262.5,647.6 275.9,649.7C278.7,650.1 281.2,650.5 281.6,650.6C282.8,650.8 288.4,644.6 288.4,643.1C288.4,642.3 288.9,641.7 289.4,641.7C290,641.7 290.4,641 290.4,640.2C290.4,639.4 290.7,638.7 291.2,638.7C291.6,638.7 292.4,637.7 293,636.4C302.5,617.7 303.3,616 306.7,606.2C313.2,587.4 318.2,557.4 315.2,555C314.5,554.4 309.6,553.7 304.4,553.3C293.4,552.6 281.3,550.6 269.9,547.6C265.5,546.4 260.7,545.3 259.1,545C257.6,544.7 256.1,544.1 255.8,543.6C255.5,543.1 254,542.7 252.3,542.7C250.7,542.7 249.4,542.3 249.4,541.7C249.4,541.2 248.3,540.7 247,540.7C245.6,540.7 244.2,540.3 243.9,539.7C243.6,539.2 242.4,538.7 241.3,538.7C240.3,538.7 239.4,538.3 239.4,537.7C239.4,537.2 238.3,536.7 237,536.7C235.6,536.7 234.2,536.3 233.9,535.7C233.6,535.2 232.4,534.7 231.3,534.7C230.3,534.7 229.4,534.3 229.4,533.7C229.4,533.2 228.5,532.7 227.4,532.7C226.3,532.7 225.4,532.3 225.4,531.7C225.4,531.2 224.5,530.7 223.5,530.7C222.4,530.7 221.4,530.4 221.2,530C221.1,529.5 218.7,528.1 215.9,526.7C213.2,525.3 210.7,524 210.4,523.7C210.1,523.4 208.9,522.6 207.7,522C202.9,519.3 201,518.2 200,517.4C199.4,517 194.2,513.2 188.4,508.9C182.6,504.7 176,499.4 173.7,497.2C171.5,495 167.2,490.9 164.2,488.1C156.4,480.6 149.8,473.3 143.8,465.3C140.8,461.4 137.9,457.7 137.4,457C136.8,456.3 135.9,454.6 135.2,453.2C134.6,451.8 133.7,450.7 133.3,450.7C132.9,450.7 132.2,449.8 131.9,448.7C131.6,447.6 130.7,446.1 130.1,445.4C128.4,443.6 125.4,438.5 124.7,436.5C124.4,435.5 123.8,434.7 123.3,434.7C122.8,434.7 122.4,433.8 122.4,432.7C122.4,431.6 122,430.7 121.4,430.7C120.9,430.7 120.4,429.8 120.4,428.7C120.4,427.6 120,426.7 119.4,426.7C118.9,426.7 118.4,425.8 118.4,424.7C118.4,423.6 118,422.7 117.4,422.7C116.9,422.7 116.4,421.8 116.4,420.8C116.4,419.7 116,418.5 115.4,418.2C114.9,417.9 114.4,416.7 114.4,415.6C114.4,414.6 114,413.7 113.6,413.7C113.1,413.7 112.1,411.4 111.4,408.6C110.6,405.9 109.6,403.4 109.2,403.1C108.8,402.8 108.4,401.7 108.4,400.6C108.4,399.6 108,397.9 107.5,396.9C103.8,389.9 98.9,365.8 96.7,344.2C95.3,329.5 95.2,325 96.3,310.9C97.6,293.5 98.9,284.5 102.4,270.2C104.8,260.5 110.5,242.5 111.5,241.7C111.8,241.4 112.7,239.1 113.5,236.5C114.2,233.8 115.2,231.7 115.6,231.7C116,231.7 116.4,230.8 116.4,229.7C116.4,228.6 116.9,227.7 117.4,227.7C118,227.7 118.4,226.8 118.4,225.7C118.4,224.6 118.9,223.7 119.4,223.7C120,223.7 120.4,222.8 120.4,221.7C120.4,220.6 120.9,219.7 121.4,219.7C122,219.7 122.4,218.8 122.4,217.7C122.4,216.6 122.8,215.7 123.2,215.7C123.7,215.7 124.6,214.1 125.4,212.2C126.2,210.3 127.1,208.7 127.5,208.7C127.9,208.7 128.4,207.9 128.7,207C129.3,205.2 132.5,199.6 133.4,198.7C133.7,198.4 135.7,195.7 137.8,192.7C147.4,179.2 168.6,156 178,149C179.6,147.8 184.5,144.1 188.9,140.7C193.3,137.4 197.4,134.3 198.1,133.7C198.8,133.1 200.5,132.2 201.9,131.5C203.3,130.9 204.4,130 204.4,129.5C204.4,129.1 205.3,128.7 206.4,128.7C207.5,128.7 208.4,128.4 208.4,128C208.4,127.5 209.4,126.7 210.7,126.1C211.9,125.5 216.4,123.1 220.8,120.8C225.1,118.6 229.3,116.7 230,116.7C230.8,116.7 231.4,116.3 231.4,115.7C231.4,115.2 232.3,114.7 233.4,114.7C234.5,114.7 235.4,114.3 235.4,113.9C235.4,113.4 237.7,112.4 240.5,111.7C243.2,110.9 245.7,109.9 246,109.5C246.3,109.1 247.6,108.7 248.9,108.7C250.2,108.7 251.5,108.3 251.8,107.8C252.1,107.3 253.4,106.7 254.6,106.4C255.9,106.1 260.4,105 264.7,103.8C274.8,101 290.1,98 298.9,97.2C302.8,96.8 306.5,96 307.2,95.5C309.7,93.4 308.6,65.8 305.2,49.7C302.6,36.8 296.7,17.5 295.2,16.9C294.8,16.7 294.4,15.7 294.4,14.7C294.4,13.7 294,12.5 293.4,12.2C292.9,11.9 292.4,10.7 292.4,9.6C292.4,8.6 292,7.7 291.4,7.7C290.9,7.7 290.4,6.8 290.4,5.7C290.4,4.6 290,3.7 289.4,3.7C288.9,3.7 288.4,3.1 288.4,2.3C288.4,0.7 285.7,-0.6 284.3,0.3C283.8,0.6 280.4,1.2 276.6,1.7C265.7,3.2 262.8,3.7 249.4,6.9C237,9.9 209.4,18.5 208.4,19.8C208.1,20.1 205.8,21 203.2,21.8C200.5,22.5 198.4,23.5 198.4,23.9C198.4,24.3 197.5,24.7 196.4,24.7C195.3,24.7 194.4,25.2 194.4,25.7C194.4,26.3 193.5,26.7 192.5,26.7C191.4,26.7 190.2,27.2 189.9,27.7C189.6,28.3 188.4,28.7 187.3,28.7C186.3,28.7 185.4,29.2 185.4,29.7C185.4,30.3 184.5,30.7 183.4,30.7C182.3,30.7 181.4,31.2 181.4,31.7C181.4,32.3 180.5,32.7 179.4,32.7C178.3,32.7 177.4,33.2 177.4,33.7C177.4,34.3 176.5,34.7 175.4,34.7C174.3,34.7 173.4,35.2 173.4,35.7C173.4,36.3 172.5,36.7 171.4,36.7C170.3,36.7 169.4,37.1 169.4,37.6C169.4,38.1 168.1,39 166.4,39.7C164.8,40.4 163.4,41.3 163.4,41.8C163.4,42.3 162.5,42.7 161.5,42.7C160.4,42.7 159.4,43 159.2,43.5C159.1,43.9 156,46 152.4,48.1C144.4,52.9 129.5,63.5 127.3,65.9C126.4,66.9 125.2,67.7 124.6,67.7C124.1,67.7 121.3,70 118.5,72.7C115.7,75.4 113,77.7 112.4,77.7C110.8,77.7 79.4,109.6 79.4,111.2C79.4,111.5 77.2,114 74.4,116.8C71.7,119.6 69.4,122.4 69.4,122.9C69.4,123.5 68.6,124.7 67.6,125.6C65.3,127.7 54.9,142.4 49.9,150.7C47.7,154.3 45.6,157.4 45.2,157.5C44.7,157.7 44.4,158.7 44.4,159.8C44.4,160.8 44,161.7 43.4,161.7C42.9,161.7 42.4,162.3 42.4,163C42.4,163.7 41.5,165.3 40.4,166.5C39.3,167.7 38.4,169.3 38.4,170.2C38.4,171 38,171.7 37.4,171.7Z " /><path id="减去顶层" fill-rule="evenodd" style="fill:#000000" transform="translate(169 126)  rotate(0 158.5 188.5)" opacity="1" d="M4.06 309.6C0.11 309.12 -5.07 287.78 10.94 236.18C18.48 211.86 27.1 191.65 40.48 158.29C38.22 72.19 73.78 0 158.48 0C242.24 0 278.6 70.78 276.53 158.29C289.86 191.6 298.53 211.96 306.06 236.18C322.08 287.73 316.9 309.08 312.89 309.6C304.42 310.63 279.87 270.77 279.87 270.77C279.87 293.81 268 323.92 242.28 345.69C254.67 349.51 282.65 359.83 276.01 371.04C270.64 380.14 183.59 376.84 158.48 374.01C133.37 376.84 46.32 380.14 40.95 371.04C34.31 359.78 62.24 349.51 74.68 345.69C48.96 323.97 37.09 293.86 37.09 270.77C37.09 270.77 12.54 310.63 4.06 309.6Z M187.999 291.521C189.099 293.021 191.599 295.121 193.499 296.121C199.499 299.321 207.199 297.021 211.099 291.121C212.799 288.621 212.899 283.221 213.399 221.121L213.899 153.821L223.799 163.321C235.699 174.721 238.999 176.121 245.899 172.821C252.399 169.721 255.099 164.621 253.899 158.021C253.299 154.921 249.599 150.721 230.599 131.621C218.199 119.121 206.599 108.221 204.799 107.321C199.199 104.721 195.899 105.321 190.999 110.121C187.499 113.421 186.499 115.221 185.899 118.821C185.599 121.321 185.399 160.521 185.599 206.021C185.899 287.821 185.899 288.721 187.999 291.521Z M117.396 106.324C111.696 106.324 107.796 108.724 105.196 113.924C103.496 117.024 103.396 122.524 103.396 183.724L103.396 250.124L93.5959 240.624C82.5959 229.924 78.6959 227.924 72.8959 229.824C68.3959 231.324 63.6959 235.924 62.8959 239.824C61.3959 246.624 62.5959 248.224 86.1959 272.024C98.5959 284.524 110.096 295.424 111.796 296.324C117.096 299.024 124.896 296.724 128.796 291.524C130.896 288.724 130.896 288.124 131.196 203.024C131.396 122.924 131.296 117.124 129.696 113.924C126.996 108.724 123.096 106.324 117.396 106.324Z " /></g></g></g></svg>